<?xml version="1.0" encoding="utf-8"?>
<!-- Generator: Adobe Illustrator 22.0.1, SVG Export Plug-In . SVG Version: 6.00 Build 0)  -->
<svg version="1.1" id="Layer_1" xmlns="http://www.w3.org/2000/svg" xmlns:xlink="http://www.w3.org/1999/xlink" x="0px" y="0px"
	 viewBox="0 0 53 53" style="enable-background:new 0 0 53 53;" xml:space="preserve">
<g>
	<g>
		<path d="M29.1698933,47.8298569c-2.3299561,1.3600464-5.0499878,2.1400146-7.9400024,2.1400146
			c-0.5,0-0.9899902-0.0200195-1.4799805-0.0700073c3.0499878-0.2799683,5.8499756-1.4400024,8.1500244-3.2099609
			C28.2898884,47.0998764,28.7198811,47.4798813,29.1698933,47.8298569z"/>
		<path d="M21.2294922,50.4699707c-0.546875,0-1.046875-0.0234375-1.5302734-0.0732422
			c-0.2558594-0.0253906-0.4501953-0.2421875-0.4492188-0.5c0.0009766-0.2568359,0.1982422-0.4716797,0.4541016-0.4951172
			c2.8603516-0.2617188,5.5888672-1.3369141,7.8916016-3.1083984c0.2011719-0.1552734,0.4902344-0.1337891,0.6669922,0.0517578
			c0.3515625,0.3701172,0.7597656,0.7373047,1.2148438,1.0908203c0.1308594,0.1015625,0.2021484,0.2626953,0.1914063,0.4277344
			c-0.0107422,0.1660156-0.1035156,0.3154297-0.2470703,0.3984375
			C26.9462891,49.7062988,24.1132813,50.4699707,21.2294922,50.4699707z M27.8515625,47.3508301
			c-0.8740234,0.6357422-1.8017578,1.1806641-2.7705078,1.6279297c1.109375-0.2880859,2.1845703-0.7001953,3.203125-1.2304688
			C28.1337891,47.6164551,27.9902344,47.4836426,27.8515625,47.3508301z"/>
	</g>
	<g>
		<path d="M50.4999084,38.6899033c0,6.3199463-5.1300049,11.4599609-11.4500122,11.4599609
			c-0.5,0-0.9899902-0.0299683-1.4699707-0.0999756c5.6300049-0.7300415,9.9699707-5.5300293,9.9699707-11.3599854
			c0-3.960022-2.0100098-7.4500103-5.0599976-9.4999981c0.2399902-0.9800415,0.3699951-2.0100098,0.3699951-3.0700073
			c0-1.2700195-0.3999634-2.8500366-1.0599976-4.6000366h-0.0100098
			c-2.289978-6.0299692-7.6799927-14.0499887-10.3699932-17.8499756c-0.0299683-0.039978-0.0599976-0.0800171-0.0899658-0.1199951
			c0.7999859-0.9700317,2.3099957-0.9299927,3.0399761,0.1199951c2.6900024,3.7999876,8.0900269,11.8099976,10.3800049,17.8399658
			h0.0100098c0.6599731,1.7600098,1.0599976,3.3400269,1.0599976,4.6100464c0,1.0599976-0.1199951,2.0799561-0.3699951,3.0700073
			C48.4898987,31.2499027,50.4999084,34.7398911,50.4999084,38.6899033z"/>
		<path d="M39.0498047,50.6496582c-0.5566406,0-1.0605469-0.0341797-1.5419922-0.1044922
			c-0.2470703-0.0371094-0.4296875-0.25-0.4277344-0.4990234c0.0019531-0.25,0.1884766-0.4599609,0.4355469-0.4921875
			c5.4355469-0.7050781,9.5341797-5.3759766,9.5341797-10.8642578c0-3.6523438-1.8085938-7.0488281-4.8388672-9.0849609
			c-0.1738281-0.1171875-0.2558594-0.3300781-0.2060547-0.5332031c0.2353516-0.9667969,0.3554688-1.9599609,0.3554688-2.9511719
			c0-1.109375-0.3359375-2.5693359-0.9970703-4.3408203c-0.0166016-0.0263672-0.0292969-0.0537109-0.0410156-0.0820313
			c-2.3476563-6.1826162-7.9921875-14.4648438-10.3105469-17.7382813c-0.1298828-0.1845703-0.2109375-0.5527344-0.0673828-0.7275391
			c0.4873047-0.5888672,1.2089844-0.9189453,1.9628906-0.8779297c0.7558594,0.03125,1.4384766,0.40625,1.8730469,1.03125
			c2.9033203,4.1005859,8.1054688,11.8632813,10.4052734,17.8632813c0.0166016,0.0273438,0.03125,0.0556641,0.0419922,0.0859375
			c0.7353516,1.9599609,1.0927734,3.5253906,1.0927734,4.7861328c0,0.9833984-0.1025391,1.9414063-0.3056641,2.8544922
			C49.1435547,31.2277832,51,34.833252,51,38.6896973C51,45.2844238,45.6396484,50.6496582,39.0498047,50.6496582z
			 M43.0537109,28.9719238c3.1347656,2.2402344,4.9960938,5.8476563,4.9960938,9.7177734
			c0,4.6259766-2.6689453,8.7197266-6.6171875,10.6982422C46.3291016,48.2961426,50,43.9143066,50,38.6896973
			c0-3.6396484-1.8056641-7.0361328-4.8300781-9.0859375c-0.1748047-0.1181641-0.2558594-0.3330078-0.2041016-0.5361328
			c0.2382813-0.9462891,0.3544922-1.9101563,0.3544922-2.9472656c0-1.1064453-0.3359375-2.5703125-0.9980469-4.3515625
			c-0.015625-0.0253906-0.0292969-0.0527344-0.0400391-0.0810547c-2.3271484-6.1289053-7.9921875-14.4394531-10.3203125-17.7285156
			c-0.2558594-0.3691406-0.6542969-0.5888672-1.0957031-0.6064453c-0.3164063-0.0166016-0.6230469,0.078125-0.8759766,0.2587891
			c2.4208984,3.4335935,7.8828125,11.5087891,10.2353516,17.6464844c0.0166016,0.0273438,0.0302734,0.0556641,0.0419922,0.0849609
			c0.7353516,1.9492188,1.0927734,3.5117188,1.0927734,4.7773438C43.3603516,27.076416,43.2568359,28.0344238,43.0537109,28.9719238
			z"/>
	</g>
	<g>
		<g>
			<g>
				<path d="M42.4902344,29.6896973c-0.0390625,0-0.0791016-0.0048828-0.1181641-0.0146484
					c-0.2685547-0.0654297-0.4326172-0.3359375-0.3671875-0.6035156c0.2353516-0.9667969,0.3554688-1.9599609,0.3554688-2.9511719
					c0-1.109375-0.3359375-2.5693359-0.9970703-4.3408203c-0.0166016-0.0263672-0.0292969-0.0537109-0.0410156-0.0820313
					c-2.3476563-6.1826162-7.9921875-14.4648438-10.3105469-17.7382813
					c-0.2724609-0.3857422-0.6962891-0.6064453-1.1650391-0.6064453c-0.0019531,0-0.0029297,0-0.0048828,0
					c-0.4648438,0.0009766-0.8847656,0.2216797-1.1513672,0.6035156c-1.0048828,1.4052732-2.9970703,4.265625-5.09375,7.6943359
					c-0.1455078,0.2363281-0.4560547,0.3076172-0.6875,0.1660156c-0.2353516-0.1445313-0.3095703-0.4521484-0.1660156-0.6875
					c2.1132813-3.4550786,4.1210938-6.3388677,5.1298828-7.75c0.4521484-0.6484375,1.1699219-1.0244141,1.9658203-1.0263672
					c0.0029297,0,0.0048828,0,0.0078125,0c0.7861328,0,1.5263672,0.3837891,1.9814453,1.0292969
					c2.3291016,3.2890623,7.9902344,11.5966797,10.3974609,17.8759766c0.0166016,0.0273438,0.0302734,0.0556641,0.0419922,0.0849609
					c0.7353516,1.9492188,1.0927734,3.5117188,1.0927734,4.7773438c0,1.0712891-0.1289063,2.1435547-0.3847656,3.1875
					C42.9199219,29.536377,42.7158203,29.6896973,42.4902344,29.6896973z"/>
			</g>
		</g>
	</g>
	<g>
		<g>
			<g>
				<path d="M18.2695313,50.4699707C9.2988281,50.4699707,2,43.1760254,2,34.2102051
					c0-2.3232422,1.0771484-5.6787109,3.2021484-9.9716797C8.6279297,17.3000488,13.8681641,9.6896982,15.9628906,6.740479
					c0.5292969-0.7519531,1.3925781-1.2001953,2.3105469-1.2001953c0.0029297,0,0.0048828,0,0.0068359,0
					c0.9296875,0.0019531,1.7685547,0.4404297,2.2998047,1.203125c0.9140625,1.289063,1.9541016,2.8007817,3.0048828,4.3681645
					c3.0244141,4.5498047,7.0888672,11.109374,9.2880859,16.53125c0.1044922,0.2558594-0.0185547,0.546875-0.2753906,0.6503906
					c-0.2568359,0.1044922-0.5478516-0.0195313-0.6503906-0.2753906c-2.1679688-5.34375-6.1962891-11.8408203-9.1933594-16.3515625
					c-1.0449219-1.5585938-2.0800781-3.0625-2.9921875-4.3476567c-0.3457031-0.4960938-0.8857422-0.7578125-1.4882813-0.7783203
					c-0.6015625,0-1.1464844,0.2832031-1.4941406,0.7773438c-2.0820313,2.9316411-7.2871094,10.4892578-10.6806641,17.3642578
					C4.0429688,28.8361816,3,32.0422363,3,34.2102051c0,8.4140625,6.8496094,15.2597656,15.2695313,15.2597656
					c3.4179688,0,6.6425781-1.0976563,9.3242188-3.1757813c0.21875-0.1679688,0.5322266-0.1308594,0.7021484,0.0888672
					c0.1689453,0.21875,0.1289063,0.5332031-0.0888672,0.7021484
					C25.3476563,49.2990723,21.9111328,50.4699707,18.2695313,50.4699707z"/>
			</g>
		</g>
		<g>
			<path d="M20.8691406,29.9328613c-0.4287109,0-0.828125-0.1035156-1.1835938-0.3125
				c-0.5117188-0.3056641-0.8505859-0.7871094-1.1484375-1.2128906l-0.1044922-0.1474609
				c-0.5478516-0.7822266-1.1650391-1.5039063-1.8388672-2.1484375c-0.4492188-0.4267578-1.0546875-0.9287109-1.7373047-1.015625
				c-1.0332031-0.1259766-1.9951172,0.6953125-2.9208984,1.4941406l-0.2304688,0.1992188
				c-1.5859375,1.3447266-3.1972656,1.6669922-4.3076172,0.8662109c-0.5615234-0.3994141-0.8847656-1.03125-1.1689453-1.5888672
				c-0.2539063-0.4970703-0.4941406-0.9667969-0.8408203-1.1816406c-0.2353711-0.1445313-0.3076172-0.453125-0.1621094-0.6875
				c0.1435547-0.2363281,0.4550781-0.3066406,0.6875-0.1621094c0.5849609,0.3613281,0.9003906,0.9785156,1.2050781,1.5761719
				c0.2558594,0.5,0.4970703,0.9716797,0.8613281,1.2314453c0.84375,0.6083984,2.1425781-0.0234375,3.0771484-0.8154297
				l0.2255859-0.1943359c1.0390625-0.8974609,2.2167969-1.9160156,3.6992188-1.7294922
				c0.9716797,0.1240234,1.7402344,0.7509766,2.3017578,1.2841797c0.7226563,0.6904297,1.3837891,1.4628906,1.9667969,2.2949219
				l0.1054688,0.1503906c0.2646484,0.3769531,0.5136719,0.7324219,0.8398438,0.9267578
				c0.9658203,0.5673828,2.3017578-0.3632813,2.8310547-0.7900391l0.2851563-0.2421875
				c0.8955078-0.7675781,1.9111328-1.6376953,3.1982422-1.6376953c0.90625-0.0410156,1.7099609,0.4335938,2.4638672,0.8613281
				c0.2714844,0.1533203,0.5410156,0.3066406,0.8173828,0.4355469c0.4013672,0.1806641,0.875,0.3291016,1.4873047,0.4648438
				c0.2695313,0.0605469,0.4394531,0.3271484,0.3798828,0.5966797s-0.3222656,0.4414063-0.5966797,0.3798828
				c-0.6806641-0.1513672-1.2167969-0.3203125-1.6865234-0.5322266c-0.3056641-0.1425781-0.5996094-0.3085938-0.8935547-0.4746094
				c-0.6708984-0.3798828-1.2802734-0.7509766-1.9677734-0.7314453c-0.9208984,0-1.75,0.7099609-2.5517578,1.3964844
				l-0.2998047,0.2558594C22.6845703,29.5285645,21.7177734,29.9328613,20.8691406,29.9328613z"/>
		</g>
		<g>
			<g>
				<path d="M16.8466797,45.0119629c-4.9316406,0-8.9433594-4.0107422-8.9433594-8.9414063c0-0.2763672,0.2236328-0.5,0.5-0.5
					s0.5,0.2236328,0.5,0.5c0,4.3789063,3.5634766,7.9414063,7.9433594,7.9414063c0.2763672,0,0.5,0.2236328,0.5,0.5
					S17.1230469,45.0119629,16.8466797,45.0119629z"/>
			</g>
		</g>
	</g>
	<g>
		<path d="M36.0888672,50.6477051c-6.59375,0-11.9589844-5.3652344-11.9589844-11.9599609
			c0-6.59375,5.3652344-11.9589844,11.9589844-11.9589844c6.5947266,0,11.9599609,5.3652344,11.9599609,11.9589844
			C48.0488281,45.2824707,42.6835938,50.6477051,36.0888672,50.6477051z M36.0888672,27.7287598
			c-6.0429688,0-10.9589844,4.9160156-10.9589844,10.9589844s4.9160156,10.9599609,10.9589844,10.9599609
			s10.9599609-4.9169922,10.9599609-10.9599609S42.1318359,27.7287598,36.0888672,27.7287598z"/>
	</g>
	<g>
		<g>
			<path d="M34.0142937,33.6497192c0.5782509,0.5810852,0.8673744,1.2798042,0.8673744,2.0961609
				c0,0.8163528-0.2891235,1.5136528-0.8673744,2.0919037s-1.2783852,0.8673782-2.1004086,0.8673782
				c-0.8163548,0-1.5136566-0.2891273-2.0919075-0.8673782c-0.578249-0.5782509-0.8673744-1.2755508-0.8673744-2.0919037
				c0-0.8163567,0.2891254-1.5150757,0.8673744-2.0961609c0.5782509-0.5810814,1.2755527-0.871624,2.0919075-0.871624
				C32.7359085,32.7780952,33.4360428,33.0686378,34.0142937,33.6497192z M33.1596756,36.9831657
				c0.3429794-0.3429832,0.5144691-0.7554131,0.5144691-1.2372856c0-0.4818764-0.1714897-0.8943062-0.5144691-1.2372856
				c-0.3429832-0.3429832-0.7582474-0.514473-1.2457905-0.514473c-0.4818764,0-0.8943043,0.1700706-1.2372856,0.5102196
				c-0.3429832,0.3401489-0.514473,0.753994-0.514473,1.241539c0,0.4818726,0.1714897,0.8943024,0.514473,1.2372856
				c0.3429813,0.3429794,0.7554092,0.514473,1.2372856,0.514473C32.4014282,37.4976387,32.8166924,37.3261452,33.1596756,36.9831657
				z M39.0314674,32.463459h0.9439087l-6.811451,12.4493904h-0.9439087L39.0314674,32.463459z M42.3564072,39.5385208
				c0.5782509,0.5782509,0.8673744,1.2755508,0.8673744,2.0919075c0,0.8163528-0.2891235,1.5136528-0.8673744,2.0919037
				s-1.2755547,0.8673744-2.0919075,0.8673744c-0.8220215,0-1.5221596-0.2891235-2.1004105-0.8673744
				c-0.5782471-0.5782509-0.8673744-1.2755508-0.8673744-2.0919037c0-0.8163567,0.2891273-1.5136566,0.8673744-2.0919075
				c0.5782509-0.5782509,1.278389-0.8673744,2.1004105-0.8673744
				C41.0808525,38.6711464,41.7781563,38.9602699,42.3564072,39.5385208z M41.5017853,42.8677139
				c0.3429832-0.3429832,0.514473-0.7554131,0.514473-1.2372856c0-0.4818764-0.1714897-0.8943062-0.514473-1.2372856
				c-0.3429794-0.3429832-0.7554092-0.514473-1.2372856-0.514473c-0.487545,0-0.9028053,0.1714897-1.2457886,0.514473
				c-0.3429832,0.3429794-0.514473,0.7554092-0.514473,1.2372856c0,0.4818726,0.1714897,0.8943024,0.514473,1.2372856
				c0.3429832,0.3429794,0.7582436,0.514473,1.2457886,0.514473C40.746376,43.3821869,41.1588058,43.2106934,41.5017853,42.8677139z
				"/>
		</g>
	</g>
</g>
</svg>
