<?xml version="1.0" encoding="UTF-8"?>
<!DOCTYPE svg PUBLIC "-//W3C//DTD SVG 1.1//EN" "http://www.w3.org/Graphics/SVG/1.1/DTD/svg11.dtd">
<!-- Creator: CorelDRAW -->
<svg xmlns="http://www.w3.org/2000/svg" xml:space="preserve" width="1.99999in" height="1.99999in" version="1.1" style="shape-rendering:geometricPrecision; text-rendering:geometricPrecision; image-rendering:optimizeQuality; fill-rule:evenodd; clip-rule:evenodd"
viewBox="0 0 2000 2000"
 xmlns:xlink="http://www.w3.org/1999/xlink">
 <defs>
  <style type="text/css">
   <![CDATA[
    .fil0 {fill:none}
    .fil1 {fill:black}
   ]]>
  </style>
 </defs>
 <rect class="fil0" width="2000" height="2000"/>
 <g id="Layer_x0020_1">
  <metadata id="CorelCorpID_0Corel-Layer"/>
  <path class="fil1" d="M1793 1303c-8,-196 -87,-374 -212,-509l-140 141c93,102 145,232 152,368l200 0zm-1256 -66l-56 -13c-7,35 -11,72 -11,109 0,17 -13,30 -30,30l-263 0c-17,0 -30,-13 -30,-30 0,-472 381,-853 853,-853 473,0 853,380 853,853 0,17 -13,30 -30,30l-260 0c-16,0 -30,-13 -30,-30 0,-37 -3,-74 -11,-109l-55 13c-35,0 -41,-51 -8,-59l48 -12c-22,-71 -60,-136 -108,-190 -20,20 -40,47 -59,47 -27,0 -40,-32 -21,-51l38 -38c-54,-48 -118,-85 -189,-108 -8,33 -11,83 -49,73 -37,-10 -17,-52 -8,-88 -72,-14 -147,-15 -218,0 9,35 28,78 -9,88 -37,10 -41,-40 -49,-72 -70,23 -134,60 -188,108 25,25 64,53 37,80 -27,27 -56,-15 -79,-37 -48,54 -85,118 -108,188 31,8 78,11 69,48 -4,14 -16,23 -29,23zm-110 -46c-2,-12 3,-16 6,-22 26,-94 76,-180 145,-251 17,-23 78,-69 102,-84l-101 -173c-215,136 -362,372 -372,642l204 0c2,-38 7,-76 16,-112zm483 329c-23,0 -37,-25 -26,-45l44 -74c-68,-72 -3,-185 94,-165l162 -281c20,-34 72,-4 52,30l-161 279c71,71 -1,188 -95,167l-44 74c-6,10 -16,15 -26,15zm68 -154c7,2 9,7 22,7 55,0 59,-80 0,-80 -36,0 -57,47 -22,73zm-347 -735l101 173c217,-111 485,-76 667,88l140 -140c-246,-228 -609,-278 -908,-121z"/>
 </g>
</svg>
