<svg xmlns="http://www.w3.org/2000/svg" xmlns:xlink="http://www.w3.org/1999/xlink" version="1.1" width="256" height="256" viewBox="0 0 256 256" xml:space="preserve">

<defs>
</defs>
<g style="stroke: none; stroke-width: 0; stroke-dasharray: none; stroke-linecap: butt; stroke-linejoin: miter; stroke-miterlimit: 10; fill: none; fill-rule: nonzero; opacity: 1;" transform="translate(1.4065934065934016 1.4065934065934016) scale(2.81 2.81)" >
	<path d="M 45 13.229 c 0.552 0 1 -0.448 1 -1 V 3.177 c 0 -0.552 -0.448 -1 -1 -1 s -1 0.448 -1 1 v 9.053 C 44 12.782 44.448 13.229 45 13.229 z" style="stroke: none; stroke-width: 1; stroke-dasharray: none; stroke-linecap: butt; stroke-linejoin: miter; stroke-miterlimit: 10; fill: rgb(0,0,0); fill-rule: nonzero; opacity: 1;" transform=" matrix(1 0 0 1 0 0) " stroke-linecap="round" />
	<path d="M 11.053 47.177 c 0 -0.553 -0.448 -1 -1 -1 H 1 c -0.552 0 -1 0.447 -1 1 s 0.448 1 1 1 h 9.053 C 10.605 48.177 11.053 47.729 11.053 47.177 z" style="stroke: none; stroke-width: 1; stroke-dasharray: none; stroke-linecap: butt; stroke-linejoin: miter; stroke-miterlimit: 10; fill: rgb(0,0,0); fill-rule: nonzero; opacity: 1;" transform=" matrix(1 0 0 1 0 0) " stroke-linecap="round" />
	<path d="M 89 46.177 h -9.053 c -0.553 0 -1 0.447 -1 1 s 0.447 1 1 1 H 89 c 0.553 0 1 -0.447 1 -1 S 89.553 46.177 89 46.177 z" style="stroke: none; stroke-width: 1; stroke-dasharray: none; stroke-linecap: butt; stroke-linejoin: miter; stroke-miterlimit: 10; fill: rgb(0,0,0); fill-rule: nonzero; opacity: 1;" transform=" matrix(1 0 0 1 0 0) " stroke-linecap="round" />
	<path d="M 69.711 23.465 c 0.256 0 0.512 -0.098 0.707 -0.293 l 6.401 -6.401 c 0.391 -0.391 0.391 -1.023 0 -1.414 s -1.023 -0.391 -1.414 0 l -6.401 6.401 c -0.391 0.391 -0.391 1.023 0 1.414 C 69.199 23.368 69.455 23.465 69.711 23.465 z" style="stroke: none; stroke-width: 1; stroke-dasharray: none; stroke-linecap: butt; stroke-linejoin: miter; stroke-miterlimit: 10; fill: rgb(0,0,0); fill-rule: nonzero; opacity: 1;" transform=" matrix(1 0 0 1 0 0) " stroke-linecap="round" />
	<path d="M 19.582 23.172 c 0.195 0.195 0.451 0.293 0.707 0.293 s 0.512 -0.098 0.707 -0.293 c 0.391 -0.391 0.391 -1.023 0 -1.414 l -6.401 -6.401 c -0.391 -0.391 -1.023 -0.391 -1.414 0 s -0.391 1.023 0 1.414 L 19.582 23.172 z" style="stroke: none; stroke-width: 1; stroke-dasharray: none; stroke-linecap: butt; stroke-linejoin: miter; stroke-miterlimit: 10; fill: rgb(0,0,0); fill-rule: nonzero; opacity: 1;" transform=" matrix(1 0 0 1 0 0) " stroke-linecap="round" />
	<path d="M 72.628 68.432 H 13.073 c -0.552 0 -1 0.447 -1 1 s 0.448 1 1 1 h 59.555 c 1.819 0 3.299 1.479 3.299 3.299 v 0.196 c 0 1.819 -1.479 3.299 -3.299 3.299 H 32.841 c -2.922 0 -5.299 2.377 -5.299 5.299 s 2.377 5.299 5.299 5.299 H 45 c 0.552 0 1 -0.447 1 -1 s -0.448 -1 -1 -1 H 32.841 c -1.819 0 -3.299 -1.479 -3.299 -3.299 s 1.48 -3.299 3.299 -3.299 h 39.787 c 2.922 0 5.299 -2.377 5.299 -5.299 V 73.73 C 77.927 70.809 75.55 68.432 72.628 68.432 z" style="stroke: none; stroke-width: 1; stroke-dasharray: none; stroke-linecap: butt; stroke-linejoin: miter; stroke-miterlimit: 10; fill: rgb(0,0,0); fill-rule: nonzero; opacity: 1;" transform=" matrix(1 0 0 1 0 0) " stroke-linecap="round" />
	<path d="M 86.754 58.432 H 70.283 c 1.588 -3.547 2.392 -7.325 2.392 -11.255 C 72.676 31.916 60.261 19.5 45 19.5 c -15.26 0 -27.676 12.416 -27.676 27.676 c 0 3.93 0.805 7.707 2.393 11.255 H 3.246 c -0.552 0 -1 0.447 -1 1 s 0.448 1 1 1 h 34.866 c 4.35 0 7.888 -3.539 7.888 -7.889 V 41.414 l 4.193 4.194 c 0.195 0.195 0.451 0.293 0.707 0.293 s 0.512 -0.098 0.707 -0.293 c 0.391 -0.391 0.391 -1.023 0 -1.414 l -5.9 -5.901 C 45.526 38.112 45.276 38 45 38 s -0.526 0.112 -0.707 0.293 l -5.901 5.901 c -0.391 0.391 -0.391 1.023 0 1.414 s 1.023 0.391 1.414 0 L 44 41.414 v 11.129 c 0 3.247 -2.642 5.889 -5.888 5.889 H 21.935 c -1.726 -3.525 -2.611 -7.306 -2.611 -11.255 C 19.324 33.019 30.842 21.5 45 21.5 c 14.157 0 25.676 11.519 25.676 25.676 c 0 3.949 -0.885 7.73 -2.611 11.255 H 53.48 c -0.553 0 -1 0.447 -1 1 s 0.447 1 1 1 h 33.273 c 0.553 0 1 -0.447 1 -1 S 87.307 58.432 86.754 58.432 z" style="stroke: none; stroke-width: 1; stroke-dasharray: none; stroke-linecap: butt; stroke-linejoin: miter; stroke-miterlimit: 10; fill: rgb(0,0,0); fill-rule: nonzero; opacity: 1;" transform=" matrix(1 0 0 1 0 0) " stroke-linecap="round" />
</g>
</svg>