<svg xmlns="http://www.w3.org/2000/svg" xmlns:xlink="http://www.w3.org/1999/xlink" version="1.1" width="256" height="256" viewBox="0 0 256 256" xml:space="preserve">
  <defs>
</defs>
  <g style="stroke: none; stroke-width: 0; stroke-dasharray: none; stroke-linecap: butt; stroke-linejoin: miter; stroke-miterlimit: 10; fill: none; fill-rule: nonzero; opacity: 1;" transform="translate(1.4065934065934016 1.4065934065934016) scale(2.81 2.81)" >
	<path d="M 45 13.229 c 0.552 0 1 -0.448 1 -1 V 3.177 c 0 -0.552 -0.448 -1 -1 -1 s -1 0.448 -1 1 v 9.053 C 44 12.782 44.448 13.229 45 13.229 z" style="stroke: none; stroke-width: 1; stroke-dasharray: none; stroke-linecap: butt; stroke-linejoin: miter; stroke-miterlimit: 10; fill: rgb(0,0,0); fill-rule: nonzero; opacity: 1;" transform=" matrix(1 0 0 1 0 0) " stroke-linecap="round" />
	<path d="M 11.053 47.177 c 0 -0.553 -0.448 -1 -1 -1 H 1 c -0.552 0 -1 0.447 -1 1 s 0.448 1 1 1 h 9.053 C 10.605 48.177 11.053 47.729 11.053 47.177 z" style="stroke: none; stroke-width: 1; stroke-dasharray: none; stroke-linecap: butt; stroke-linejoin: miter; stroke-miterlimit: 10; fill: rgb(0,0,0); fill-rule: nonzero; opacity: 1;" transform=" matrix(1 0 0 1 0 0) " stroke-linecap="round" />
	<path d="M 89 46.177 h -9.053 c -0.553 0 -1 0.447 -1 1 s 0.447 1 1 1 H 89 c 0.553 0 1 -0.447 1 -1 S 89.553 46.177 89 46.177 z" style="stroke: none; stroke-width: 1; stroke-dasharray: none; stroke-linecap: butt; stroke-linejoin: miter; stroke-miterlimit: 10; fill: rgb(0,0,0); fill-rule: nonzero; opacity: 1;" transform=" matrix(1 0 0 1 0 0) " stroke-linecap="round" />
	<path d="M 69.711 23.465 c 0.256 0 0.512 -0.098 0.707 -0.293 l 6.401 -6.401 c 0.391 -0.391 0.391 -1.023 0 -1.414 s -1.023 -0.391 -1.414 0 l -6.401 6.401 c -0.391 0.391 -0.391 1.023 0 1.414 C 69.199 23.368 69.455 23.465 69.711 23.465 z" style="stroke: none; stroke-width: 1; stroke-dasharray: none; stroke-linecap: butt; stroke-linejoin: miter; stroke-miterlimit: 10; fill: rgb(0,0,0); fill-rule: nonzero; opacity: 1;" transform=" matrix(1 0 0 1 0 0) " stroke-linecap="round" />
	<path d="M 19.582 23.172 c 0.195 0.195 0.451 0.293 0.707 0.293 s 0.512 -0.098 0.707 -0.293 c 0.391 -0.391 0.391 -1.023 0 -1.414 l -6.401 -6.401 c -0.391 -0.391 -1.023 -0.391 -1.414 0 s -0.391 1.023 0 1.414 L 19.582 23.172 z" style="stroke: none; stroke-width: 1; stroke-dasharray: none; stroke-linecap: butt; stroke-linejoin: miter; stroke-miterlimit: 10; fill: rgb(0,0,0); fill-rule: nonzero; opacity: 1;" transform=" matrix(1 0 0 1 0 0) " stroke-linecap="round" />
	<path d="M 72.628 68.432 H 13.073 c -0.552 0 -1 0.447 -1 1 s 0.448 1 1 1 h 59.555 c 1.819 0 3.299 1.479 3.299 3.299 v 0.196 c 0 1.819 -1.479 3.299 -3.299 3.299 H 32.841 c -2.922 0 -5.299 2.377 -5.299 5.299 s 2.377 5.299 5.299 5.299 H 45 c 0.552 0 1 -0.447 1 -1 s -0.448 -1 -1 -1 H 32.841 c -1.819 0 -3.299 -1.479 -3.299 -3.299 s 1.48 -3.299 3.299 -3.299 h 39.787 c 2.922 0 5.299 -2.377 5.299 -5.299 V 73.73 C 77.927 70.809 75.55 68.432 72.628 68.432 z" style="stroke: none; stroke-width: 1; stroke-dasharray: none; stroke-linecap: butt; stroke-linejoin: miter; stroke-miterlimit: 10; fill: rgb(0,0,0); fill-rule: nonzero; opacity: 1;" transform=" matrix(1 0 0 1 0 0) " stroke-linecap="round" />
	<path d="M 86.754 58.432 H 70.283 c 1.588 -3.547 2.392 -7.325 2.392 -11.255 c 0 -13.728 -9.829 -25.228 -23.371 -27.343 c -0.556 -0.086 -1.058 0.289 -1.143 0.833 c -0.085 0.545 0.288 1.057 0.834 1.142 c 12.563 1.963 21.68 12.631 21.68 25.367 c 0 3.949 -0.885 7.73 -2.611 11.255 h -46.13 c -1.726 -3.525 -2.611 -7.306 -2.611 -11.255 c 0 -10.087 5.945 -19.282 15.146 -23.425 C 35.579 23.253 36.796 23 38.091 23 c 0.007 0 0.014 0 0.021 0 C 41.358 23 44 25.642 44 28.888 v 11.129 l -4.194 -4.193 c -0.391 -0.391 -1.023 -0.391 -1.414 0 s -0.391 1.023 0 1.414 l 5.901 5.9 c 0.092 0.092 0.203 0.165 0.325 0.216 c 0.122 0.051 0.252 0.077 0.382 0.077 s 0.26 -0.027 0.382 -0.077 c 0.122 -0.051 0.233 -0.124 0.325 -0.216 l 5.9 -5.9 c 0.391 -0.391 0.391 -1.023 0 -1.414 s -1.023 -0.391 -1.414 0 L 46 40.017 V 28.888 C 46 24.539 42.461 21 38.114 21 c -1.611 0.017 -3.089 0.309 -4.465 0.929 c -9.917 4.465 -16.325 14.375 -16.325 25.248 c 0 3.93 0.805 7.707 2.393 11.255 H 3.246 c -0.552 0 -1 0.447 -1 1 s 0.448 1 1 1 h 83.508 c 0.553 0 1 -0.447 1 -1 S 87.307 58.432 86.754 58.432 z" style="stroke: none; stroke-width: 1; stroke-dasharray: none; stroke-linecap: butt; stroke-linejoin: miter; stroke-miterlimit: 10; fill: rgb(0,0,0); fill-rule: nonzero; opacity: 1;" transform=" matrix(1 0 0 1 0 0) " stroke-linecap="round" />
</g>
</svg>
